<svg xmlns="http://www.w3.org/2000/svg" width="20" height="20" viewBox="0 0 20 20"><defs><clipPath id="fftva"><path fill="#fff" d="M10 0c5.523 0 10 4.477 10 10 0 5.522-4.477 10-10 10S0 15.522 0 10C0 4.477 4.477 0 10 0z"/></clipPath></defs><g><g opacity=".06"><path fill="#192b59" d="M10 0c5.523 0 10 4.477 10 10 0 5.522-4.477 10-10 10S0 15.522 0 10C0 4.477 4.477 0 10 0z"/><path fill="none" stroke="#192b59" stroke-dasharray="8 8" stroke-miterlimit="50" stroke-width="8" d="M10 0c5.523 0 10 4.477 10 10 0 5.522-4.477 10-10 10S0 15.522 0 10C0 4.477 4.477 0 10 0z" clip-path="url(&quot;#fftva&quot;)"/></g></g></svg>